<?xml version="1.0" encoding="UTF-8"?>
<svg width="25px" height="26px" viewBox="0 0 25 26" version="1.1" xmlns="http://www.w3.org/2000/svg" xmlns:xlink="http://www.w3.org/1999/xlink">
    <!-- Generator: Sketch 53.1 (72631) - https://sketchapp.com -->
    <title>Group 2</title>
    <desc>Created with Sketch.</desc>
    <g id="Qalam-Mobile-App" stroke="none" stroke-width="1" fill="none" fill-rule="evenodd">
        <g id="Series-2" transform="translate(-255.000000, -596.000000)" fill="#000000">
            <g id="Group-6" transform="translate(93.000000, 592.000000)">
                <g id="Group-5" transform="translate(0.000000, 2.000000)">
                    <g id="Group-2" transform="translate(160.000000, 0.000000)">
                        <text id="15" font-family="ProximaNova-Semibold, Proxima Nova" font-size="14" font-weight="500" line-spacing="20">
                            <tspan x="7" y="18">15</tspan>
                        </text>
                        <g id="noun_Reverse_1199247" transform="translate(14.000000, 15.000000) scale(-1, 1) rotate(98.000000) translate(-14.000000, -15.000000) translate(1.000000, 3.000000)" fill-rule="nonzero">
                            <path d="M13.9735248,0 C7.34164467,0 1.94650058,5.38305472 1.94650058,12.0001369 L0,12.0001369 L3.45440726,16.3137559 L6.90936345,12.0001369 L4.41667898,12.0001369 C4.41667898,6.74223769 8.70381083,2.46476864 13.9735248,2.46476864 C19.2429642,2.46476864 23.5298216,6.74251155 23.5298216,12.0001369 C23.5298216,17.2577623 19.2429642,21.5355052 13.9735248,21.5355052 C11.4015201,21.5355052 8.98870474,20.5307012 7.17943629,18.7059508 L5.42341391,20.4395048 C7.70036947,22.7355737 10.7367677,24 13.9735248,24 C20.6048559,24 26,18.6166714 26,11.9998631 C26,5.38305472 20.6048559,0 13.9735248,0 Z" id="Shape"></path>
                        </g>
                    </g>
                </g>
            </g>
        </g>
    </g>
</svg>