<?xml version="1.0" encoding="UTF-8"?>
<svg width="31px" height="17px" viewBox="0 0 31 17" version="1.1" xmlns="http://www.w3.org/2000/svg" xmlns:xlink="http://www.w3.org/1999/xlink">
    <!-- Generator: Sketch 53.1 (72631) - https://sketchapp.com -->
    <title>noun_switch_2620692</title>
    <desc>Created with Sketch.</desc>
    <g id="Qalam-Mobile-App" stroke="none" stroke-width="1" fill="none" fill-rule="evenodd">
        <g id="Settings" transform="translate(-324.000000, -159.000000)" fill="#000000" fill-rule="nonzero">
            <g id="noun_switch_2620692" transform="translate(324.000000, 159.000000)">
                <path d="M22.3888946,0 L8.61110537,0 C3.8553232,0 3.05927918e-16,3.80557963 0,8.5 C-6.11855837e-16,13.1944204 3.8553232,17 8.61110537,17 L22.3888946,17 C27.1446768,17 31,13.1944204 31,8.5 C31,3.80557963 27.1446768,0 22.3888946,0 Z M8.43888326,15.1806362 C4.70104202,15.1806362 1.670923,12.1896135 1.670923,8.5 C1.670923,4.81038651 4.70104202,1.8193638 8.43888326,1.8193638 C12.1767245,1.8193638 15.2068435,4.81038651 15.2068435,8.5 C15.2068444,10.2718152 14.4937938,11.9710616 13.2245549,13.2239242 C11.9553159,14.4767867 10.2338582,15.1806371 8.43888326,15.1806362 Z" id="Shape"></path>
            </g>
        </g>
    </g>
</svg>