<?xml version="1.0" encoding="UTF-8"?>
<svg width="24px" height="18px" viewBox="0 0 24 18" version="1.1" xmlns="http://www.w3.org/2000/svg" xmlns:xlink="http://www.w3.org/1999/xlink">
    <!-- Generator: Sketch 53.1 (72631) - https://sketchapp.com -->
    <title>noun_Left_1920775</title>
    <desc>Created with Sketch.</desc>
    <g id="Qalam-Mobile-App" stroke="none" stroke-width="1" fill="none" fill-rule="evenodd">
        <g id="Series-1" transform="translate(-20.000000, -104.000000)" fill="#000000" fill-rule="nonzero">
            <g id="noun_Left_1920775" transform="translate(20.000000, 104.000000)">
                <path d="M0.404210526,9.94226087 L8.13473684,17.6055652 C8.66526316,18.1314783 9.52421053,18.1314783 10.0294737,17.6055652 C10.56,17.0796522 10.56,16.2281739 10.0294737,15.7273043 L4.59789474,10.317913 L22.6610526,10.317913 C23.3936842,10.317913 24,9.71686957 24,8.9906087 C24,8.26434783 23.3936842,7.66330435 22.6610526,7.66330435 L4.59789474,7.66330435 L10.0294737,2.27895652 C10.56,1.75304348 10.56,0.901565217 10.0294737,0.400695652 C9.77684211,0.15026087 9.42315789,0 9.06947368,0 C8.71578947,0 8.38736842,0.125217391 8.10947368,0.400695652 L0.404210526,8.03895652 C0.151578947,8.2893913 0,8.64 0,8.9906087 C1.12190958e-16,9.34121739 0.151578947,9.69182609 0.404210526,9.94226087 Z" id="Path"></path>
            </g>
        </g>
    </g>
</svg>