<?xml version="1.0" encoding="UTF-8"?>
<svg width="20px" height="20px" viewBox="0 0 20 20" version="1.1" xmlns="http://www.w3.org/2000/svg" xmlns:xlink="http://www.w3.org/1999/xlink">
    <!-- Generator: Sketch 53.1 (72631) - https://sketchapp.com -->
    <title>noun_dark mode_4066360</title>
    <desc>Created with Sketch.</desc>
    <g id="Qalam-Mobile-App" stroke="none" stroke-width="1" fill="none" fill-rule="evenodd">
        <g id="Settings" transform="translate(-18.000000, -157.000000)" fill="#000000" fill-rule="nonzero">
            <g id="noun_dark-mode_4066360" transform="translate(18.000000, 157.000000)">
                <path d="M4.23955147,10 C4.23955147,13.1675642 6.81146009,15.7353823 9.98407015,15.7353823 C13.1566802,15.7353823 15.7285888,13.1675642 15.7285888,10 C15.7285888,6.83243582 13.1566802,4.2646177 9.98407015,4.2646177 C6.81194072,4.2657759 4.24071151,6.83291569 4.23955147,10 Z M10.0387198,5.76719133 C12.4103416,5.76719133 14.3329209,7.68671289 14.3329209,10.0545627 C14.3329209,12.4224126 12.4103416,14.3419341 10.0387198,14.3419341 L10.0387198,5.76719133 Z M10.404452,3.08732189 L10.404452,0.514479335 C10.4163364,0.33482487 10.327081,0.163500125 10.172928,0.0700714819 C10.0187751,-0.0233571606 9.82535254,-0.0233571606 9.67119959,0.0700714819 C9.51704664,0.163500125 9.42779126,0.33482487 9.43967558,0.514479335 L9.43967558,3.08732189 C9.45645616,3.34099267 9.6674354,3.53818315 9.92206382,3.53818315 C10.1766922,3.53818315 10.3876715,3.34099267 10.404452,3.08732189 Z M16.9981422,3.59517498 C17.1739185,3.40478519 17.1679086,3.10983398 16.9845222,2.9267392 C16.8011357,2.74364441 16.5057147,2.73764407 16.3150216,2.91314087 L14.5010737,4.73259804 C14.3252973,4.92298784 14.3313072,5.21793904 14.5146937,5.40103383 C14.6980801,5.58412861 14.9935012,5.59012896 15.1841943,5.41463216 L16.9981422,3.59517498 Z M16.9077601,10.4197133 L19.4847011,10.4197133 C19.6646418,10.4315787 19.8362394,10.3424653 19.9298169,10.1885575 C20.0233944,10.0346497 20.0233944,9.84153483 19.9298169,9.68762705 C19.8362394,9.53371928 19.6646418,9.44460585 19.4847011,9.45647127 L16.9077601,9.45647127 C16.6536852,9.47322516 16.4561806,9.68386884 16.4561806,9.93809229 C16.4561806,10.1923157 16.6536852,10.4029594 16.9077601,10.4197133 Z M14.5767424,14.5098194 C14.4857357,14.60004 14.4345543,14.722791 14.4345543,14.8508365 C14.4345543,14.978882 14.4857357,15.101633 14.5767424,15.1918536 L16.399098,17.0113107 C16.5883018,17.1982818 16.8930147,17.1982818 17.0822185,17.0113107 C17.1732253,16.9210902 17.2244067,16.7983392 17.2244067,16.6702937 C17.2244067,16.5422482 17.1732253,16.4194972 17.0822185,16.3292766 L15.259863,14.5098194 C15.1694987,14.4189575 15.0465522,14.3678575 14.9183027,14.3678575 C14.7900532,14.3678575 14.6671067,14.4189575 14.5767424,14.5098194 Z M9.56368825,16.9126781 L9.56368825,19.4855207 C9.55180393,19.6651751 9.64105931,19.8364999 9.79521225,19.9299285 C9.9493652,20.0233572 10.1427877,20.0233572 10.2969407,19.9299285 C10.4510936,19.8364999 10.540349,19.6651751 10.5284647,19.4855207 L10.5284647,16.9126781 C10.5116841,16.6590073 10.3007049,16.4618168 10.0460765,16.4618168 C9.79144806,16.4618168 9.58046882,16.6590073 9.56368825,16.9126781 L9.56368825,16.9126781 Z M2.96159049,16.404825 C2.82418022,16.5430892 2.78347221,16.7502631 2.8583757,16.9301126 C2.93327919,17.1099621 3.1091134,17.2272374 3.30420174,17.2274631 C3.43198341,17.22801 3.55464505,17.1773602 3.64471108,17.0868591 L5.46706662,15.267402 C5.64284298,15.0770122 5.63683308,14.782061 5.45344663,14.5989662 C5.27006017,14.4158714 4.97463912,14.409871 4.78394603,14.5853678 L2.96159049,16.404825 Z M9.33435331e-17,10.0545627 C0.001157293,10.3203143 0.217261793,10.535137 0.483439186,10.5351345 L3.06038024,10.5351345 C3.31445512,10.5183806 3.51195972,10.3077369 3.51195972,10.0535134 C3.51195972,9.79929 3.31445512,9.58864631 3.06038024,9.57189243 L0.483439186,9.57189243 C0.216443096,9.57189243 0,9.78799128 9.33435331e-17,10.0545627 Z M5.39139788,5.49018055 C5.48240461,5.39995998 5.53358602,5.27720901 5.53358602,5.14916349 C5.53358602,5.02111798 5.48240461,4.89836701 5.39139788,4.80814643 L3.56904234,2.98868926 C3.37834925,2.81319246 3.0829282,2.8191928 2.89954174,3.00228759 C2.71615529,3.18538238 2.71014539,3.48033358 2.88592175,3.67072338 L4.70827729,5.49018055 C4.89748111,5.67715158 5.20219406,5.67715158 5.39139788,5.49018055 L5.39139788,5.49018055 Z" id="Shape"></path>
            </g>
        </g>
    </g>
</svg>