<?xml version="1.0" encoding="UTF-8"?>
<svg width="18px" height="20px" viewBox="0 0 18 20" version="1.1" xmlns="http://www.w3.org/2000/svg" xmlns:xlink="http://www.w3.org/1999/xlink">
    <!-- Generator: Sketch 53.1 (72631) - https://sketchapp.com -->
    <title>noun_notification_1439251</title>
    <desc>Created with Sketch.</desc>
    <g id="Qalam-Mobile-App" stroke="none" stroke-width="1" fill="none" fill-rule="evenodd">
        <g id="Settings" transform="translate(-18.000000, -259.000000)" fill="#000000" fill-rule="nonzero">
            <g id="noun_notification_1439251" transform="translate(18.000000, 259.000000)">
                <path d="M16.5438043,13.9605356 C16.8847672,14.0521494 17.1902131,14.2283298 17.4317285,14.4679352 L17.4317285,14.4679352 C17.7797948,14.8132488 18,15.2924595 18,15.8210007 C18,16.3495419 17.7797948,16.8287526 17.4317285,17.1740662 C17.0836622,17.5264271 16.6006314,17.7378436 16.0678769,17.7378436 L11.8484609,17.7378436 C11.7277032,18.2804792 11.4506709,18.7667371 11.0670876,19.1472868 C10.5343331,19.675828 9.8026835,20 9,20 C8.1973165,20 7.46566693,19.675828 6.93291239,19.1472868 C6.54932912,18.7667371 6.27229676,18.2804792 6.15153907,17.7378436 L1.93212313,17.7378436 C1.39936859,17.7378436 0.916337806,17.5264271 0.568271507,17.1740662 C0.220205209,16.8287526 0,16.3495419 0,15.8210007 C0,15.2924595 0.220205209,14.8132488 0.568271507,14.4679352 C0.809786898,14.2283298 1.11523283,14.0521494 1.45619574,13.9605356 C1.67640095,13.255814 1.86108919,12.4242424 1.99605367,11.5856237 C2.18074191,10.4721635 2.28018942,9.3516561 2.28018942,8.51303735 C2.28018942,6.67371388 3.03314917,5.01057082 4.25493291,3.79844961 C4.78768745,3.26990839 5.41278611,2.82593376 6.10181531,2.49471459 C6.19415943,1.86046512 6.49250197,1.28964059 6.93291239,0.852713178 C7.46566693,0.324171952 8.1973165,0 9,0 C9.8026835,0 10.5343331,0.324171952 11.0670876,0.852713178 C11.507498,1.28964059 11.8058406,1.86046512 11.8981847,2.49471459 C12.5872139,2.82593376 13.2123125,3.26990839 13.7450671,3.79844961 C14.9668508,5.01057082 15.7198106,6.67371388 15.7198106,8.51303735 C15.7198106,9.3516561 15.8192581,10.4721635 16.0039463,11.5856237 C16.1389108,12.4242424 16.3235991,13.255814 16.5438043,13.9605356 Z M6.28650355,8.1888654 C6.28650355,8.54122622 5.9952644,8.83016209 5.64009471,8.83016209 C5.28492502,8.83016209 4.99368587,8.54122622 4.99368587,8.1888654 C4.99368587,7.18816068 5.41278611,6.27202255 6.07340174,5.60958421 C6.74112076,4.94714588 7.66456196,4.53840733 8.68034728,4.53840733 C9.03551697,4.53840733 9.31965272,4.82029598 9.31965272,5.17970402 C9.31965272,5.53206483 9.03551697,5.81395349 8.68034728,5.81395349 C8.01973165,5.81395349 7.42304657,6.08174771 6.98973954,6.51162791 C6.55643252,6.9415081 6.28650355,7.54052149 6.28650355,8.1888654 L6.28650355,8.1888654 Z M7.65745856,1.98026779 C8.09076559,1.88865398 8.5382794,1.83932347 9,1.83932347 C9.4617206,1.83932347 9.90923441,1.88865398 10.3425414,1.98026779 C10.2857143,1.8957012 10.2288871,1.81818182 10.1578532,1.74770965 C9.85951066,1.45877378 9.45461721,1.27554616 9,1.27554616 C8.54538279,1.27554616 8.14048934,1.45877378 7.8421468,1.74770965 C7.77111287,1.81818182 7.71428571,1.8957012 7.65745856,1.98026779 Z M10.5059195,17.7378436 L7.49408051,17.7378436 C7.57932123,17.9281184 7.70007893,18.1042988 7.8421468,18.2522903 C8.14048934,18.5412262 8.54538279,18.7244538 9,18.7244538 C9.45461721,18.7244538 9.85951066,18.5412262 10.1578532,18.2522903 C10.2999211,18.1042988 10.4206788,17.9281184 10.5059195,17.7378436 Z M16.5224941,15.3699789 C16.4088398,15.2501762 16.2454617,15.179704 16.0678769,15.179704 L16.0678769,15.179704 C15.8050513,15.179704 15.5564325,15.017618 15.4640884,14.756871 C15.1515391,13.8971106 14.9029203,12.8400282 14.7324388,11.7970402 C14.5335438,10.5990134 14.4340963,9.40803383 14.4340963,8.51303735 C14.4340963,7.0260747 13.8232044,5.68005638 12.8358327,4.70754052 C11.8484609,3.72797745 10.4917127,3.12191684 9,3.12191684 C7.50828729,3.12191684 6.15153907,3.72797745 5.16416732,4.70754052 C4.17679558,5.68005638 3.56590371,7.0260747 3.56590371,8.51303735 C3.56590371,9.40803383 3.4664562,10.5990134 3.26756117,11.7970402 C3.09707972,12.8188865 2.86266772,13.8477801 2.55722178,14.7004933 C2.48618785,14.9753347 2.23756906,15.179704 1.93212313,15.179704 C1.75453828,15.179704 1.59826361,15.2572234 1.47750592,15.3699789 C1.36385162,15.4827343 1.28571429,15.6448203 1.28571429,15.8210007 C1.28571429,15.9971811 1.36385162,16.1592671 1.47750592,16.2720226 C1.59826361,16.384778 1.75453828,16.4622974 1.93212313,16.4622974 L6.07340174,16.4622974 L11.9265983,16.4622974 L16.0678769,16.4622974 C16.2454617,16.4622974 16.4017364,16.384778 16.5224941,16.2720226 C16.6361484,16.1592671 16.7142857,15.9971811 16.7142857,15.8210007 C16.7142857,15.6448203 16.6361484,15.4827343 16.5224941,15.3699789 L16.5224941,15.3699789 Z" id="Shape"></path>
            </g>
        </g>
    </g>
</svg>