<?xml version="1.0" encoding="UTF-8"?>
<svg width="27px" height="25px" viewBox="0 0 27 25" version="1.1" xmlns="http://www.w3.org/2000/svg" xmlns:xlink="http://www.w3.org/1999/xlink">
    <!-- Generator: Sketch 53.1 (72631) - https://sketchapp.com -->
    <title>noun_Heart_2079389</title>
    <desc>Created with Sketch.</desc>
    <g id="Qalam-Mobile-App" stroke="none" stroke-width="1" fill="none" fill-rule="evenodd" opacity="0.416884478">
        <g id="Home" transform="translate(-187.000000, -753.000000)" fill="#000000" fill-rule="nonzero">
            <g id="Group-9" transform="translate(0.000000, 734.000000)">
                <g id="Group-5-Copy" transform="translate(185.000000, 19.000000)">
                    <g id="noun_Heart_2079389" transform="translate(2.000000, 0.000000)">
                        <path d="M19.3695652,7.93211525e-16 C17.1012491,0.00593362696 14.9519975,1.03058641 13.5,2.79830725 C11.4463072,0.29045053 8.06356535,-0.643164383 5.0403326,0.463493667 C2.01709985,1.57015172 0.00163715289,4.47978602 0,7.73999878 C0,16.0753821 12.326087,24.4107654 12.9130435,24.8037192 C13.3048164,25.0654269 13.8125749,25.0654269 14.2043478,24.8037192 C14.673913,24.4107654 27,16.0753821 27,7.73999878 C26.9935357,3.46803449 23.5810575,0.00655713252 19.3695652,7.93211525e-16 Z M13.5,22.3626426 C9.86086957,19.7548584 2.34782609,13.2056287 2.34782609,7.73999878 C2.35149982,5.22280157 4.08197329,3.04754176 6.50674953,2.51210065 C8.93152577,1.97665953 11.3968362,3.22540283 12.4317391,5.51326067 C12.6224449,5.93784009 13.0400338,6.21032705 13.5,6.21032705 C13.9599662,6.21032705 14.3775551,5.93784009 14.5682609,5.51326067 C15.6031638,3.22540283 18.0684742,1.97665953 20.4932505,2.51210065 C22.9180267,3.04754176 24.6485002,5.22280157 24.6521739,7.73999878 C24.6521739,13.7891055 15.9652174,20.5645814 13.5,22.3626426 Z" id="Shape"></path>
                    </g>
                </g>
            </g>
        </g>
    </g>
</svg>