<?xml version="1.0" encoding="UTF-8"?>
<svg width="25px" height="25px" viewBox="0 0 25 25" version="1.1" xmlns="http://www.w3.org/2000/svg" xmlns:xlink="http://www.w3.org/1999/xlink">
    <!-- Generator: Sketch 53.1 (72631) - https://sketchapp.com -->
    <title>noun_Settings_1272093</title>
    <desc>Created with Sketch.</desc>
    <g id="Qalam-Mobile-App" stroke="none" stroke-width="1" fill="none" fill-rule="evenodd" opacity="0.416884478">
        <g id="Home" transform="translate(-323.000000, -753.000000)" fill="#000000" fill-rule="nonzero">
            <g id="Group-9" transform="translate(0.000000, 734.000000)">
                <g id="Group-2-Copy" transform="translate(318.000000, 19.000000)">
                    <g id="noun_Settings_1272093" transform="translate(5.000000, 0.000000)">
                        <path d="M0.697375229,14.5679668 C-0.0086189037,15.0764431 -0.208235828,16.0278244 0.235475889,16.7693952 L2.63175368,20.8200234 C2.83598032,21.1669772 3.15814168,21.4320165 3.5415554,21.568509 C3.96237063,21.7062226 4.42273856,21.6632664 4.80967905,21.4501822 L6.96800869,20.4815537 C7.34350151,20.7273743 7.73431792,20.9497888 8.13815368,21.1474858 L8.35930549,23.5085178 C8.36273895,23.5473169 8.36834624,23.5859005 8.37610183,23.6240928 C8.5247535,24.4098801 9.21480497,24.984725 10.0277419,24.9999855 L14.8035011,24.9999855 C15.6830905,25.00253 16.4157034,24.3375872 16.4831351,23.4754963 L16.6986881,21.1502376 C17.1065267,20.9539079 17.5002859,20.7304961 17.8772313,20.4815537 L20.057956,21.4694447 L20.1111444,21.491459 C20.8974303,21.8028662 21.7971782,21.5022008 22.2274832,20.7842501 L24.5957671,16.7776505 C25.0424366,16.0394401 24.8490139,15.0887726 24.1478647,14.5762221 L22.3254619,13.2113365 C22.3497394,12.9754358 22.3618855,12.7384807 22.361854,12.5013759 C22.361854,12.2592188 22.347857,12.0308206 22.3254619,11.8161813 L24.2850348,10.4402886 L24.30743,10.4237779 C25.0103149,9.91293542 25.2072538,8.9628005 24.7637305,8.22234949 L22.3142643,4.18548021 C21.8857915,3.41692202 20.905589,3.13389165 20.122342,3.55256955 L17.9752099,4.52119804 C17.598742,4.27538797 17.206995,4.05297601 16.8022655,3.85526595 L16.5839131,1.49423402 C16.5805538,1.45451578 16.5749464,1.41501233 16.5671168,1.37590725 C16.4182514,0.589123451 15.7266741,0.0139823523 14.9126773,1.45149625e-05 L10.1397175,1.45149625e-05 C9.26012815,-0.00253000947 8.52751519,0.662412794 8.46008352,1.52450366 L8.2445305,3.85801774 C7.83682037,4.0525175 7.4430613,4.27409042 7.06598734,4.52119804 L4.89086135,3.53881063 L4.83767295,3.51679634 C4.05138712,3.20538919 3.15163921,3.50605452 2.72133415,4.22400521 L0.353050267,8.22510128 C-0.0897074515,8.96510564 0.105798356,9.91414846 0.806551436,10.4265297 L0.828946556,10.4430404 L2.78851951,11.8189331 C2.76612439,12.0335724 2.75212744,12.2619706 2.75212744,12.5041277 C2.75212744,12.7462848 2.75212744,12.9636759 2.78572012,13.1728115 L0.742165468,14.5376971 L0.697375229,14.5679668 Z M4.61652114,14.6119953 C4.97163791,14.3748819 5.15758785,13.9590663 5.09521682,13.5415508 C5.03323007,13.1978846 4.99674184,12.8502434 4.98604061,12.5013759 C4.99380383,12.1508759 5.02748533,11.8013949 5.08681865,11.4556974 C5.14668237,11.0475889 4.96949013,10.6408171 4.6277187,10.4017636 L2.52257747,8.92405479 L4.40936629,5.73198364 L6.72726115,6.78041391 C7.11665433,6.95674595 7.57428901,6.89904516 7.90580432,6.63181749 C8.46750739,6.20243004 9.08750384,5.85231861 9.7478029,5.59164258 C10.1257022,5.43275226 10.3846732,5.08311857 10.4224559,4.68080159 L10.6520058,2.19043575 L14.400389,2.19043575 L14.6299389,4.68080159 C14.6637177,5.0849181 14.9207828,5.43805474 15.2989931,5.59989794 C15.9673365,5.87978874 16.5981874,6.23929378 17.1773838,6.67034249 C17.5063326,6.91224482 17.9436244,6.95765953 18.3167355,6.78866926 L20.6402291,5.73748721 L22.577407,8.92405479 L20.4778645,10.3907564 C20.1360931,10.62981 19.9589009,11.0365818 20.0187646,11.4446903 C20.0780685,11.7903915 20.1117498,12.1398705 20.1195426,12.4903688 C20.1117695,12.8408681 20.0780881,13.1903485 20.0187646,13.5360472 L20.0187646,13.5360472 C19.9613736,13.931429 20.1263596,14.3263487 20.4498706,14.5679668 L22.4234405,16.0456756 L20.5338523,19.2625128 L18.2159575,18.2140825 C17.8265643,18.0377505 17.3689296,18.0954513 17.0374143,18.3626789 C16.4756499,18.7919766 15.8556667,19.1420805 15.1954157,19.4028538 C14.8175164,19.5617442 14.5585454,19.9113779 14.5207627,20.3136948 L14.2912128,22.8040607 L10.5400302,22.8040607 L10.3104803,20.3136948 C10.2726976,19.9113779 10.0137266,19.5617442 9.6358273,19.4028538 C8.96750924,19.1229133 8.33666434,18.7634117 7.75743665,18.3324093 C7.42912602,18.0915741 6.99323241,18.0461931 6.62088434,18.2140825 L4.30298947,19.2625128 L2.42179943,16.078697 L4.61652114,14.6119953 Z" id="Shape"></path>
                        <path d="M12.5001263,16.9997474 C14.9853379,16.9997474 17,14.9850853 17,12.4998737 C17,10.0146621 14.9853379,8 12.5001263,8 C10.0149147,8 8.00025264,10.0146621 8.00025264,12.4998737 C7.98750676,13.6971763 8.45750518,14.8491573 9.30417395,15.6958261 C10.1508427,16.5424948 11.3028237,17.0124932 12.5001263,16.9997474 L12.5001263,16.9997474 Z M12.5001263,10.095401 C13.4726447,10.095401 14.3494027,10.681232 14.7215694,11.5797218 C15.0937361,12.4782117 14.8880196,13.5124182 14.2003452,14.2000926 C13.5126709,14.887767 12.4784643,15.0934834 11.5799745,14.7213168 C10.6814846,14.3491501 10.0956537,13.4723921 10.0956537,12.4998737 C10.0885672,11.8600217 10.3396185,11.2443087 10.7920899,10.7918373 C11.2445613,10.3393659 11.8602744,10.0883145 12.5001263,10.095401 L12.5001263,10.095401 Z" id="Shape"></path>
                    </g>
                </g>
            </g>
        </g>
    </g>
</svg>