<?xml version="1.0" encoding="UTF-8"?>
<svg width="19px" height="20px" viewBox="0 0 19 20" version="1.1" xmlns="http://www.w3.org/2000/svg" xmlns:xlink="http://www.w3.org/1999/xlink">
    <!-- Generator: Sketch 53.1 (72631) - https://sketchapp.com -->
    <title>noun_Language_1713999</title>
    <desc>Created with Sketch.</desc>
    <g id="Qalam-Mobile-App" stroke="none" stroke-width="1" fill="none" fill-rule="evenodd">
        <g id="Settings" transform="translate(-18.000000, -208.000000)" fill="#000000" fill-rule="nonzero">
            <g id="noun_Language_1713999" transform="translate(18.000000, 208.000000)">
                <g id="Group" transform="translate(0.250000, 0.000000)">
                    <path d="M17.9142857,7.54166667 C17.9142857,3.4375 14.4857143,0.104166667 10.2642857,0.104166667 C6.04285714,0.104166667 2.61428571,3.4375 2.61428571,7.54166667 C2.61428571,8.0625 2.67857143,8.5625 2.76428571,9.04166667 C1.26428571,9.04166667 0.0428571429,10.2291667 0.0428571429,11.6875 L0.0428571429,14.7708333 C0.0428571429,16.2291667 1.26428571,17.4166667 2.76428571,17.4166667 L3.23571429,17.4166667 C3.21428571,17.7708333 3.12857143,18.1666667 2.95714286,18.6041667 C2.80714286,18.9791667 2.91428571,19.4166667 3.23571429,19.6666667 C3.42857143,19.8125 3.64285714,19.8958333 3.87857143,19.8958333 C4.05,19.8958333 4.2,19.8541667 4.37142857,19.7708333 C5.46428571,19.1666667 6.38571429,18.1875 7.00714286,17.3958333 L8.1,17.3958333 C9.53571429,17.3958333 10.7142857,16.3125 10.8214286,14.9375 C14.7857143,14.6666667 17.9142857,11.4583333 17.9142857,7.54166667 Z M15.8142857,10.8541667 C15.3,10.6458333 14.7642857,10.4583333 14.2285714,10.3125 C14.3785714,9.60416667 14.4857143,8.85416667 14.5071429,8.0625 L16.7571429,8.0625 C16.6714286,9.10416667 16.3285714,10.0416667 15.8142857,10.8541667 Z M15.8142857,4.20833333 C16.3285714,5.04166667 16.6714286,5.97916667 16.7571429,7 L14.5071429,7 C14.4642857,6.20833333 14.3785714,5.45833333 14.2285714,4.75 C14.7642857,4.58333333 15.3,4.41666667 15.8142857,4.20833333 Z M15.1071429,3.29166667 C14.7214286,3.4375 14.3357143,3.5625 13.9071429,3.66666667 C13.6714286,2.9375 13.35,2.29166667 12.9857143,1.77083333 C13.8,2.14583333 14.5285714,2.66666667 15.1071429,3.29166667 Z M10.8428571,1.3125 C11.5928571,1.625 12.3428571,2.54166667 12.8142857,3.91666667 C12.1714286,4.02083333 11.5285714,4.08333333 10.8428571,4.125 L10.8428571,1.3125 L10.8428571,1.3125 Z M10.8428571,5.22916667 C11.6142857,5.20833333 12.3857143,5.125 13.1142857,5 C13.2428571,5.60416667 13.35,6.27083333 13.3714286,7 L10.8428571,7 L10.8428571,5.22916667 Z M10.8428571,8.08333333 L13.3714286,8.08333333 C13.35,8.8125 13.2428571,9.47916667 13.1142857,10.0833333 C12.3857143,9.95833333 11.6142857,9.875 10.8428571,9.85416667 L10.8428571,8.08333333 Z M7.26428571,9.02083333 C7.22142857,8.70833333 7.2,8.39583333 7.17857143,8.0625 L9.70714286,8.0625 L9.70714286,9.5 C9.25714286,9.1875 8.72142857,9 8.12142857,9 L7.26428571,9 L7.26428571,9.02083333 Z M9.70714286,6.97916667 L7.17857143,6.97916667 C7.2,6.25 7.30714286,5.58333333 7.43571429,4.97916667 C8.16428571,5.10416667 8.93571429,5.1875 9.70714286,5.20833333 L9.70714286,6.97916667 L9.70714286,6.97916667 Z M9.70714286,1.3125 L9.70714286,4.125 C9.02142857,4.10416667 8.37857143,4.02083333 7.73571429,3.91666667 C8.22857143,2.5625 8.95714286,1.625 9.70714286,1.3125 Z M7.56428571,1.77083333 C7.2,2.3125 6.87857143,2.95833333 6.64285714,3.66666667 C6.23571429,3.5625 5.82857143,3.4375 5.44285714,3.29166667 C6.02142857,2.66666667 6.75,2.14583333 7.56428571,1.77083333 Z M4.73571429,4.20833333 C5.25,4.41666667 5.78571429,4.60416667 6.34285714,4.75 C6.17142857,5.45833333 6.08571429,6.20833333 6.06428571,7 L3.79285714,7 C3.87857143,5.97916667 4.22142857,5.02083333 4.73571429,4.20833333 Z M6.04285714,8.08333333 C6.06428571,8.41666667 6.08571429,8.72916667 6.10714286,9.04166667 L3.96428571,9.04166667 C3.87857143,8.72916667 3.81428571,8.41666667 3.79285714,8.08333333 L6.04285714,8.08333333 Z M9.70714286,14.75 C9.70714286,15.6041667 9,16.2916667 8.12142857,16.2916667 L6.75,16.2916667 C6.57857143,16.2916667 6.40714286,16.375 6.3,16.5208333 C5.89285714,17.0625 5.12142857,17.9791667 4.2,18.6041667 C4.41428571,17.8958333 4.43571429,17.2708333 4.41428571,16.8333333 C4.39285714,16.5416667 4.15714286,16.3125 3.85714286,16.3125 L2.80714286,16.3125 C1.92857143,16.3125 1.22142857,15.625 1.22142857,14.7708333 L1.22142857,11.6666667 C1.22142857,10.8125 1.92857143,10.125 2.80714286,10.125 L8.12142857,10.125 C9,10.125 9.70714286,10.8125 9.70714286,11.6666667 L9.70714286,14.75 L9.70714286,14.75 Z M10.8428571,13.75 L10.8428571,11.6666667 C10.8428571,11.6666667 10.8428571,11.6666667 10.8428571,11.6458333 L10.8428571,10.9375 C11.5285714,10.9583333 12.1714286,11.0208333 12.8142857,11.1458333 C12.3428571,12.5 11.5928571,13.4375 10.8428571,13.75 Z M12.9857143,13.2916667 C13.35,12.75 13.6714286,12.125 13.9071429,11.3958333 C14.3142857,11.5 14.7214286,11.625 15.1071429,11.7708333 C14.5285714,12.3958333 13.8,12.9166667 12.9857143,13.2916667 Z" id="Shape"></path>
                    <path d="M7.60714286,11.5833333 L3.32142857,11.5833333 C3,11.5833333 2.76428571,11.8333333 2.76428571,12.125 C2.76428571,12.4166667 3.02142857,12.6666667 3.32142857,12.6666667 L7.60714286,12.6666667 C7.92857143,12.6666667 8.16428571,12.4166667 8.16428571,12.125 C8.16428571,11.8333333 7.90714286,11.5833333 7.60714286,11.5833333 Z" id="Path"></path>
                    <path d="M7.60714286,13.6666667 L3.32142857,13.6666667 C3,13.6666667 2.76428571,13.9166667 2.76428571,14.2083333 C2.76428571,14.5 3.02142857,14.75 3.32142857,14.75 L7.60714286,14.75 C7.92857143,14.75 8.16428571,14.5 8.16428571,14.2083333 C8.16428571,13.9166667 7.90714286,13.6666667 7.60714286,13.6666667 Z" id="Path"></path>
                </g>
            </g>
        </g>
    </g>
</svg>