<?xml version="1.0" encoding="UTF-8"?>
<svg width="17px" height="18px" viewBox="0 0 17 18" version="1.1" xmlns="http://www.w3.org/2000/svg" xmlns:xlink="http://www.w3.org/1999/xlink">
    <!-- Generator: Sketch 53.1 (72631) - https://sketchapp.com -->
    <title>noun_Download_4052639</title>
    <desc>Created with Sketch.</desc>
    <g id="Qalam-Mobile-App" stroke="none" stroke-width="1" fill="none" fill-rule="evenodd">
        <g id="Series-2" transform="translate(-338.000000, -711.000000)" fill="#000000" fill-rule="nonzero">
            <g id="noun_Download_4052639" transform="translate(338.000000, 711.000000)">
                <g id="Group">
                    <path d="M15.3433854,11.8297462 C15.3433854,11.3610152 15.711276,10.9813706 16.1650521,10.9813706 C16.6188281,10.9813706 16.9867187,11.3610152 16.9867187,11.8297462 L16.9867187,14.1583249 C16.9867187,16.2593909 15.3239063,17.9753299 13.2883333,17.9753299 L3.69838542,17.9753299 C1.6628125,17.9753299 -1.88737914e-15,16.2593909 -1.88737914e-15,14.1583249 L-1.88737914e-15,11.8297462 C-1.88737914e-15,11.3610152 0.367890625,10.9813706 0.821666667,10.9813706 C1.27544271,10.9813706 1.64333333,11.3610152 1.64333333,11.8297462 L1.64333333,14.1583249 C1.64333333,15.3228426 2.56992187,16.2790355 3.69838542,16.2790355 L13.2883333,16.2790355 C14.4167969,16.2790355 15.3433854,15.3228426 15.3433854,14.1583249 L15.3433854,11.8297462 L15.3433854,11.8297462 Z" id="Path"></path>
                    <path d="M3.36015625,9.01187817 C3.05513021,8.66604061 3.07947917,8.13060914 3.41460937,7.81629442 C3.74973958,7.50152284 4.26859375,7.52664975 4.57361979,7.87248731 L7.67169271,11.3806599 L7.67169271,0.847918782 C7.67169271,0.37964467 8.03958333,-2.43460074e-15 8.49335937,-2.43460074e-15 C8.94713542,-2.43460074e-15 9.31502604,0.37964467 9.31502604,0.847918782 L9.31502604,11.3806599 L12.413099,7.87248731 C12.718125,7.52664975 13.2369792,7.50152284 13.5721094,7.81629442 C13.9072396,8.13060914 13.9315885,8.66604061 13.6265625,9.01187817 C12.1182552,10.7200508 10.6010937,12.423198 9.09986979,14.1382234 C8.77536458,14.505533 8.21223958,14.5073604 7.88684896,14.1382234 L3.36015625,9.01187817 L3.36015625,9.01187817 Z" id="Path"></path>
                </g>
            </g>
        </g>
    </g>
</svg>