<?xml version="1.0" encoding="UTF-8"?>
<svg width="8px" height="8px" viewBox="0 0 8 8" version="1.1" xmlns="http://www.w3.org/2000/svg" xmlns:xlink="http://www.w3.org/1999/xlink">
    <!-- Generator: Sketch 53.1 (72631) - https://sketchapp.com -->
    <title>Path</title>
    <desc>Created with Sketch.</desc>
    <g id="Qalam-Mobile-App" stroke="none" stroke-width="1" fill="none" fill-rule="evenodd">
        <g id="Series-1" transform="translate(-126.000000, -769.000000)" fill="#EDB831">
            <g id="Group-13" transform="translate(20.000000, 701.000000)">
                <g id="Group-8" transform="translate(106.000000, 66.000000)">
                    <path d="M4.30460701,2.182404 L5.32204858,4.21924861 C5.3801881,4.31045061 5.46739738,4.37125194 5.55460665,4.40165261 L7.73483859,4.79686126 C7.99646642,4.82726193 8.0836757,5.16166926 7.90925715,5.37447392 L6.36855991,7.01610988 C6.31042039,7.10731187 6.28135063,7.19851387 6.28135063,7.32011654 L6.60111798,9.60016648 C6.63018774,9.87377247 6.36855991,10.0865771 6.13600184,9.96497447 L4.15925821,8.93135183 C4.04297918,8.90095116 3.9557699,8.90095116 3.86856062,8.93135183 L1.891817,9.96497447 C1.63018917,10.0865771 1.36856133,9.87377247 1.39763109,9.60016648 L1.71739844,7.32011654 C1.7464682,7.19851387 1.68832868,7.10731187 1.63018917,7.01610988 L0.0894919301,5.37447392 C-0.0849266249,5.16166926 0.00228265257,4.82726193 0.292980244,4.79686126 L2.44414242,4.40165261 C2.56042146,4.37125194 2.61856098,4.31045061 2.6767005,4.21924861 L3.69414207,2.182404 C3.83949086,1.93919867 4.18832797,1.93919867 4.30460701,2.182404 Z" id="Path"></path>
                </g>
            </g>
        </g>
    </g>
</svg>