<?xml version="1.0" encoding="UTF-8"?>
<svg width="20px" height="18px" viewBox="0 0 20 18" version="1.1" xmlns="http://www.w3.org/2000/svg" xmlns:xlink="http://www.w3.org/1999/xlink">
    <!-- Generator: Sketch 53.1 (72631) - https://sketchapp.com -->
    <title>Shape blue</title>
    <desc>Created with Sketch.</desc>
    <g id="Qalam-Mobile-App" stroke="none" stroke-width="1" fill="none" fill-rule="evenodd">
        <g id="Series-2" transform="translate(-177.000000, -711.000000)" fill="#126088" fill-rule="nonzero">
            <path d="M191.347826,711 C189.667592,711.004272 188.075554,711.742022 187,713.014781 C185.478746,711.209124 182.973011,710.536922 180.73358,711.333715 C178.494148,712.130509 177.001213,714.225446 177,716.572799 C177,722.574275 186.130435,728.575751 186.565217,728.858678 C186.85542,729.047107 187.231537,729.047107 187.521739,728.858678 C187.869565,728.575751 197,722.574275 197,716.572799 C196.995212,713.496985 194.46745,711.004721 191.347826,711 Z M187,727 C184.389474,725.172148 179,720.581651 179,716.750672 C179.002635,714.986314 180.243989,713.461628 181.983399,713.086325 C183.72281,712.711023 185.491298,713.586294 186.233684,715.189903 C186.370487,715.4875 186.670044,715.678492 187,715.678492 C187.329956,715.678492 187.629513,715.4875 187.766316,715.189903 C188.508702,713.586294 190.27719,712.711023 192.016601,713.086325 C193.756011,713.461628 194.997365,714.986314 195,716.750672 C195,720.990622 188.768421,725.7397 187,727 Z" id="Shape-blue"></path>
        </g>
    </g>
</svg>