<?xml version="1.0" encoding="UTF-8"?>
<svg width="25px" height="26px" viewBox="0 0 25 26" version="1.1" xmlns="http://www.w3.org/2000/svg" xmlns:xlink="http://www.w3.org/1999/xlink">
    <!-- Generator: Sketch 53.1 (72631) - https://sketchapp.com -->
    <title>Stroke 1</title>
    <desc>Created with Sketch.</desc>
    <g id="Qalam-Mobile-App" stroke="none" stroke-width="1" fill="none" fill-rule="evenodd" stroke-linecap="round" stroke-linejoin="round">
        <g id="Series" transform="translate(-21.000000, -751.000000)" stroke="#959595" stroke-width="2">
            <g id="Group-8-Copy" transform="translate(21.000000, 752.000000)">
                <path d="M12.5,0 L11.7475714,0.649714286 L1,13.0765714 L1,22.2857143 C1,23.232 1.736,24 2.64285714,24 L7.57142857,24 C8.47828571,24 9.21428571,23.232 9.21428571,22.2857143 L9.21428571,15.4285714 C9.21428571,14.4822857 9.95028571,13.7142857 10.8571429,13.7142857 L14.1428571,13.7142857 C15.0497143,13.7142857 15.7857143,14.4822857 15.7857143,15.4285714 L15.7857143,22.2857143 C15.7857143,23.232 16.5217143,24 17.4285714,24 L22.3571429,24 C23.264,24 24,23.232 24,22.2857143 L24,13.0765714 L13.2524286,0.649714286 L12.5,0 Z" id="Stroke-1"></path>
            </g>
        </g>
    </g>
</svg>