<?xml version="1.0" encoding="UTF-8"?>
<svg width="25px" height="26px" viewBox="0 0 25 26" version="1.1" xmlns="http://www.w3.org/2000/svg" xmlns:xlink="http://www.w3.org/1999/xlink">
    <title>DAEF5A04-7C87-418D-B4A7-EC53FE588838</title>
    <g id="Qalam-Mobile-App" stroke="none" stroke-width="1" fill="none" fill-rule="evenodd" stroke-linecap="round" stroke-linejoin="round">
        <g id="Home" transform="translate(-21.000000, -753.000000)" fill="#EDB831" stroke="#EDB831" stroke-width="2">
            <g id="Group-9" transform="translate(0.000000, 734.000000)">
                <g id="Group-8-Copy" transform="translate(20.000000, 20.000000)">
                    <path d="M13.5,0 L12.7475714,0.649714286 L2,13.0765714 L2,22.2857143 C2,23.232 2.736,24 3.64285714,24 L8.57142857,24 C9.47828571,24 10.2142857,23.232 10.2142857,22.2857143 L10.2142857,15.4285714 C10.2142857,14.4822857 10.9502857,13.7142857 11.8571429,13.7142857 L15.1428571,13.7142857 C16.0497143,13.7142857 16.7857143,14.4822857 16.7857143,15.4285714 L16.7857143,22.2857143 C16.7857143,23.232 17.5217143,24 18.4285714,24 L23.3571429,24 C24.264,24 25,23.232 25,22.2857143 L25,13.0765714 L14.2524286,0.649714286 L13.5,0 Z" id="Stroke-1"></path>
                </g>
            </g>
        </g>
    </g>
</svg>