<?xml version="1.0" encoding="UTF-8"?>
<svg width="35px" height="35px" viewBox="0 0 35 35" version="1.1" xmlns="http://www.w3.org/2000/svg" xmlns:xlink="http://www.w3.org/1999/xlink">
    <title>583DAD5A-A6AF-435B-8B30-56EF977F7110</title>
    <defs>
        <circle id="path-1" cx="13.5" cy="13.5" r="13.5"></circle>
        <filter x="-22.2%" y="-22.2%" width="144.4%" height="144.4%" filterUnits="objectBoundingBox" id="filter-2">
            <feOffset dx="0" dy="0" in="SourceAlpha" result="shadowOffsetOuter1"></feOffset>
            <feGaussianBlur stdDeviation="2" in="shadowOffsetOuter1" result="shadowBlurOuter1"></feGaussianBlur>
            <feColorMatrix values="0 0 0 0 0   0 0 0 0 0   0 0 0 0 0  0 0 0 0.2 0" type="matrix" in="shadowBlurOuter1"></feColorMatrix>
        </filter>
        <filter id="filter-3">
            <feColorMatrix in="SourceGraphic" type="matrix" values="0 0 0 0 0.070588 0 0 0 0 0.376471 0 0 0 0 0.533333 0 0 0 1.000000 0"></feColorMatrix>
        </filter>
    </defs>
    <g id="Qalam-Mobile-App" stroke="none" stroke-width="1" fill="none" fill-rule="evenodd">
        <g id="Series-1" transform="translate(-324.000000, -606.000000)">
            <g id="Group-10-Copy-2" transform="translate(328.000000, 610.000000)">
                <g id="Oval-Copy">
                    <use fill="black" fill-opacity="1" filter="url(#filter-2)" xlink:href="#path-1"></use>
                    <use fill="#FFFFFF" fill-rule="evenodd" xlink:href="#path-1"></use>
                </g>
                <g filter="url(#filter-3)" id="noun_Download_148005">
                    <g transform="translate(6.500000, 7.000000)">
                        <path d="M3.85428947,6.5006254 C3.7030943,6.36077977 3.7030943,6.13398822 3.85428947,5.99414259 C4.00548464,5.85429696 4.25068205,5.85429696 4.40187722,5.99414259 L6.61280975,8.03911041 L6.61280975,0.358217151 C6.61280975,0.160346563 6.78616966,0 7.00009895,0 C7.21402824,0 7.38738815,0.160346563 7.38738815,0.358217151 L7.38738815,8.03892736 L9.59832068,5.99395955 C9.74951585,5.85411391 9.99471326,5.85411391 10.1459084,5.99395955 C10.2971036,6.13380518 10.2971036,6.36059672 10.1459084,6.50044236 L7.27399177,9.15696025 C7.25538923,9.17416639 7.23520348,9.18935904 7.21383034,9.20235517 C7.19601939,9.21333781 7.17721895,9.22175783 7.1580227,9.22962873 C7.15426261,9.23127612 7.15070042,9.23365569 7.14674243,9.23512005 C7.12635879,9.2428079 7.10518355,9.24811617 7.08400831,9.25250923 C7.08084192,9.2532414 7.07787343,9.25452271 7.07470704,9.25507184 C7.05016751,9.2594649 7.02503428,9.26184447 7.00009895,9.26184447 C7.00009895,9.26184447 7.00009895,9.26184447 7.00009895,9.26184447 C7.00009895,9.26184447 7.00009895,9.26184447 7.00009895,9.26184447 C6.99851575,9.26184447 6.99693256,9.26147839 6.99534936,9.26147839 C6.97199723,9.26129534 6.9486451,9.25928186 6.92568876,9.25525489 C6.92212657,9.25452271 6.91856438,9.25305836 6.91500219,9.25232618 C6.89402485,9.24793313 6.87304751,9.24262485 6.85305967,9.234937 C6.85286177,9.23475396 6.85246597,9.23475396 6.85226807,9.23475396 C6.85127857,9.23438787 6.85068487,9.23365569 6.84969538,9.23328961 C6.81981256,9.22157479 6.79210664,9.20528387 6.76558811,9.18643034 C6.75846373,9.1813051 6.75173515,9.17636292 6.74500657,9.17087159 C6.73906959,9.16592941 6.73234101,9.16226853 6.72660193,9.15696025 L3.85428947,6.5006254 Z M13.6129087,5.86290003 C13.3989794,5.86290003 13.2256195,6.02324659 13.2256195,6.22111718 L13.2256195,9.60303853 C13.2256195,10.5297904 12.4104717,11.2835657 11.4085068,11.2835657 L2.59169105,11.2835657 C1.58972619,11.2835657 0.774578404,10.5296074 0.774578404,9.60303853 L0.774578404,6.16565484 C0.774578404,5.96778425 0.601218495,5.80743769 0.387289202,5.80743769 C0.173359908,5.80743769 0,5.96778425 0,6.16565484 L0,9.60303853 C0,10.9247994 1.1624613,12 2.59149315,12 L11.4085068,12 C12.8375387,12 14,10.9247994 14,9.60303853 L14,6.22093413 C14,6.02324659 13.8266401,5.86290003 13.6129087,5.86290003 Z" id="Shape" fill="#000000" fill-rule="nonzero"></path>
                    </g>
                </g>
            </g>
        </g>
    </g>
</svg>