<?xml version="1.0" encoding="UTF-8"?>
<svg width="15px" height="15px" viewBox="0 0 15 15" version="1.1" xmlns="http://www.w3.org/2000/svg" xmlns:xlink="http://www.w3.org/1999/xlink">
    <title>4CD4BAE5-CEDC-44C4-A658-60588DD40202</title>
    <g id="Qalam-Mobile-App" stroke="none" stroke-width="1" fill="none" fill-rule="evenodd">
        <g id="Home" transform="translate(-40.000000, -118.000000)" fill="#929292" fill-rule="nonzero">
            <g id="Group-4" transform="translate(20.000000, 103.000000)">
                <g id="noun_Search_4052600" transform="translate(20.000000, 15.000000)">
                    <path d="M1.86885486,1.86918239 C4.36066135,-0.623060797 8.40130397,-0.623060797 10.8931105,1.86918239 C13.1585034,4.13459119 13.3928833,7.73584906 11.4415343,10.2696017 L14.7572344,13.5853249 C15.0809219,13.9090147 15.0809219,14.433543 14.7572344,14.7572327 C14.4335469,15.0809224 13.908603,15.0809224 13.5849155,14.7572327 L10.2692154,11.4415094 C7.73548053,13.3932914 4.13424784,13.1589099 1.86885486,10.893501 C-0.622951622,8.40125786 -0.622951622,4.36100629 1.86885486,1.86918239 Z M2.86213933,2.86247379 C0.918756682,4.80587002 0.918756682,7.95639413 2.86213933,9.90020964 C4.80552197,11.8436059 7.95644335,11.8436059 9.899826,9.90020964 C11.8432086,7.95639413 11.8432086,4.80587002 9.899826,2.86247379 C7.95644335,0.918658281 4.80552197,0.918658281 2.86213933,2.86247379 Z" id="Shape"></path>
                </g>
            </g>
        </g>
    </g>
</svg>