<?xml version="1.0" encoding="UTF-8"?>
<svg width="25px" height="26px" viewBox="0 0 25 26" version="1.1" xmlns="http://www.w3.org/2000/svg" xmlns:xlink="http://www.w3.org/1999/xlink">
    <title>6E6A0D5B-65A5-44D2-B944-9B12F396B80B</title>
    <g id="icons" stroke="none" stroke-width="1" fill="none" fill-rule="evenodd" stroke-linecap="round" stroke-linejoin="round">
        <g transform="translate(-20.000000, -423.000000)" id="Stroke-1" stroke="#959595" stroke-width="2">
            <path d="M32.5,424 L31.7475714,424.649714 L21,437.076571 L21,446.285714 C21,447.232 21.736,448 22.6428571,448 L27.5714286,448 C28.4782857,448 29.2142857,447.232 29.2142857,446.285714 L29.2142857,439.428571 C29.2142857,438.482286 29.9502857,437.714286 30.8571429,437.714286 L34.1428571,437.714286 C35.0497143,437.714286 35.7857143,438.482286 35.7857143,439.428571 L35.7857143,446.285714 C35.7857143,447.232 36.5217143,448 37.4285714,448 L42.3571429,448 C43.264,448 44,447.232 44,446.285714 L44,437.076571 L33.2524286,424.649714 L32.5,424 Z"></path>
        </g>
    </g>
</svg>