<?xml version="1.0" encoding="UTF-8"?>
<svg width="19px" height="16px" viewBox="0 0 19 16" version="1.1" xmlns="http://www.w3.org/2000/svg" xmlns:xlink="http://www.w3.org/1999/xlink">
    <title>4AE0B1A3-0B85-49F1-826B-C49DB4B0F2DC</title>
    <g id="icons" stroke="none" stroke-width="1" fill="none" fill-rule="evenodd">
        <g transform="translate(-162.000000, -264.000000)" fill="#000000" fill-rule="nonzero" id="noun_Volume_1444991">
            <g transform="translate(162.000000, 264.000000)" id="Group">
                <path d="M13.9559524,4.59428571 L13.0511905,5.62285714 C13.7308348,6.22187967 14.1208832,7.0886712 14.1208832,8 C14.1208832,8.9113288 13.7308348,9.77812033 13.0511905,10.3771429 L13.9559524,11.4057143 C14.9199668,10.5465842 15.4722273,9.31031121 15.4722273,8.01142857 C15.4722273,6.71254593 14.9199668,5.47627297 13.9559524,4.61714286 L13.9559524,4.59428571 Z" id="Path"></path>
                <path d="M16.5571429,2.44571429 L15.6297619,3.45142857 C16.8912028,4.62032778 17.6093779,6.27048141 17.6093779,8 C17.6093779,9.72951859 16.8912028,11.3796722 15.6297619,12.5485714 L16.5571429,13.5542857 C18.1030542,12.1253654 18.9835339,10.1056997 18.9835339,7.98857143 C18.9835339,5.87144314 18.1030542,3.85177743 16.5571429,2.42285714 L16.5571429,2.44571429 Z" id="Path"></path>
                <path d="M10.8797619,0.16 C10.6599628,0.0354616257 10.3899708,0.0442627234 10.1785714,0.182857143 L4.56904762,3.84 L2.96309524,3.84 C1.33911508,3.84 0.0226190476,5.17035389 0.0226190476,6.81142857 L0.0226190476,9.18857143 C0.0226190476,9.97664328 0.332418328,10.7324378 0.883864584,11.2896887 C1.43531084,11.8469397 2.18323246,12.16 2.96309524,12.16 L4.56904762,12.16 L10.1785714,15.8171429 C10.3863527,15.9495527 10.6487255,15.9581469 10.8645563,15.8396129 C11.0803871,15.7210788 11.2159715,15.4939268 11.2190478,15.2457143 L11.2190478,0.754285714 C11.2192032,0.509146512 11.0898473,0.282569576 10.8797619,0.16 L10.8797619,0.16 Z M1.3797619,9.18857143 L1.3797619,6.81142857 C1.3797619,5.92777297 2.08864438,5.21142857 2.96309524,5.21142857 L4.09404762,5.21142857 L4.09404762,10.7885714 L2.96309524,10.7885714 C2.08864438,10.7885714 1.3797619,10.072227 1.3797619,9.18857143 Z M9.88452381,13.9885714 L5.45119048,11.0857143 L5.45119048,4.91428571 L9.88452381,2.01142857 L9.88452381,13.9885714 Z" id="Shape"></path>
            </g>
        </g>
    </g>
</svg>