<?xml version="1.0" encoding="UTF-8"?>
<svg width="29px" height="34px" viewBox="0 0 29 34" version="1.1" xmlns="http://www.w3.org/2000/svg" xmlns:xlink="http://www.w3.org/1999/xlink">
    <title>25F577EF-8958-48E2-BD4F-567D0319DAF2</title>
    <defs>
        <filter id="filter-1">
            <feColorMatrix in="SourceGraphic" type="matrix" values="0 0 0 0 0.070588 0 0 0 0 0.376471 0 0 0 0 0.533333 0 0 0 1.000000 0"></feColorMatrix>
        </filter>
    </defs>
    <g id="Qalam-Mobile-App" stroke="none" stroke-width="1" fill="none" fill-rule="evenodd">
        <g id="noun_pause_1939967" transform="translate(-174.000000, -614.000000)" filter="url(#filter-1)">
            <g transform="translate(174.000000, 614.000000)" id="Group" fill="#000000" fill-rule="nonzero">
                <path d="M9.40731707,0.177083333 L1.52073171,0.177083333 C0.77804878,0.177083333 0.141463415,0.779166667 0.141463415,1.55833333 L0.141463415,32.4770833 C0.141463415,33.2208333 0.742682927,33.8583333 1.52073171,33.8583333 L9.37195122,33.8583333 C10.1146341,33.8583333 10.7512195,33.25625 10.7512195,32.4770833 L10.7512195,1.55833333 C10.7512195,0.779166667 10.15,0.177083333 9.40731707,0.177083333 Z" id="Path"></path>
                <path d="M27.4792683,0.177083333 L19.5926829,0.177083333 C18.85,0.177083333 18.2134146,0.779166667 18.2134146,1.55833333 L18.2134146,32.4770833 C18.2134146,33.2208333 18.8146341,33.8583333 19.5926829,33.8583333 L27.4439024,33.8583333 C28.1865854,33.8583333 28.8231707,33.25625 28.8231707,32.4770833 L28.8231707,1.55833333 C28.8231707,0.779166667 28.2219512,0.177083333 27.4792683,0.177083333 Z" id="Path"></path>
            </g>
        </g>
    </g>
</svg>