<?xml version="1.0" encoding="UTF-8"?>
<svg width="23px" height="26px" viewBox="0 0 23 26" version="1.1" xmlns="http://www.w3.org/2000/svg" xmlns:xlink="http://www.w3.org/1999/xlink">
    <title>7B3CF39E-19C3-43B1-9D5A-427526E084DE</title>
    <defs>
        <filter color-interpolation-filters="auto" id="filter-1">
            <feColorMatrix in="SourceGraphic" type="matrix" values="0 0 0 0 0.584314 0 0 0 0 0.584314 0 0 0 0 0.584314 0 0 0 1.000000 0"></feColorMatrix>
        </filter>
    </defs>
    <g id="icons" stroke="none" stroke-width="1" fill="none" fill-rule="evenodd">
        <g transform="translate(-257.000000, -427.000000)" id="noun_Donate_1230953" filter="url(#filter-1)">
            <g transform="translate(257.000000, 427.000000)">
                <path d="M22.2159249,3.88900091 L15.7627937,0.137424287 C15.494221,-0.0190805681 15.1737272,-0.0431587677 14.8867323,0.0716071532 L5.35174217,3.8615771 C4.74162795,4.06451326 4.23059212,4.60201986 3.78734674,5.07645169 C3.75158162,5.11409229 3.71846805,5.15442036 3.68826837,5.19711644 L0.697665777,9.39844347 L0.666377868,9.43409442 C-0.0660746202,10.5833281 -0.204029142,12.0415349 0.298744943,13.3200477 C0.476043091,13.7889948 0.901037182,14.6418751 1.4407536,15.7251155 L1.68584222,16.218744 C0.181597584,18.3635497 0.165357342,21.2843274 1.64564861,23.4474916 C3.12593987,25.6106558 5.76437652,26.5217195 8.17561936,25.7023192 C10.5868622,24.8829188 12.2197149,22.5203645 12.2168308,19.8551406 C12.2168308,19.8194896 12.2168308,19.7838387 12.2168308,19.7454454 L17.2333254,17.0304886 C17.8573455,16.7047766 18.3948473,16.221408 18.7977209,15.6236474 C18.824623,15.5842545 18.8490116,15.5430283 18.870726,15.5002402 C19.5773113,14.1016262 20.8653302,11.0082209 22.8077878,6.03902728 C23.0034367,5.67320017 23.0520755,5.24033822 22.9428973,4.83661871 C22.833719,4.4328992 22.5757666,4.09176084 22.2263542,3.88900091 L22.2159249,3.88900091 Z M7.22380203,12.7249511 L8.7725535,11.0987194 L10.425598,11.3455337 L9.2992333,13.4379701 L8.23022976,14.0330666 C8.07900487,13.9809614 7.92777997,13.9370833 7.77394776,13.8959476 L7.22380203,12.7249511 Z M6.38163583,23.8041686 C4.62423055,23.8114455 3.0971607,22.5355564 2.7063283,20.7333956 C2.3154959,18.9312348 3.16548492,17.0850476 4.75205726,16.2900458 C4.45286772,16.663967 4.22691318,17.0964125 4.0871892,17.5625104 C3.80549419,18.4939645 3.89975469,19.5062148 4.34792177,20.362481 C4.71741466,21.1175717 5.34829502,21.6947501 6.11047395,21.9750008 C6.88457982,22.2544984 7.73420433,22.1840006 8.45706709,21.7802918 L9.98756729,20.9575776 C9.53676593,22.6555542 8.05765474,23.8231927 6.38163583,23.8041686 Z M17.05342,14.403288 C16.85392,14.6876139 16.5929507,14.9179198 16.2920809,15.0751713 L7.49235658,19.8414287 C7.27385865,19.9688945 7.01418852,19.9928175 6.77794934,19.9072458 C6.51544942,19.8043561 6.30069696,19.5991034 6.17826442,19.3340883 C6.00539178,18.9976293 5.96964118,18.6018144 6.07918604,18.2371361 C6.22040832,17.8015991 6.5259708,17.446483 6.92395958,17.2553638 L10.545535,15.2397141 C10.7204094,15.1416905 10.8651143,14.9932952 10.9627071,14.8119027 L12.9990285,11.052099 C13.1700053,10.7361902 13.1810877,10.351711 13.0286199,10.0254883 C12.8761521,9.6992656 12.5799382,9.47367258 12.2376894,9.4231249 L8.55093082,8.87464879 C8.23014608,8.81966481 7.90332789,8.92512106 7.6670474,9.15985636 L5.21616123,11.7322093 C4.89834503,12.0661606 4.81955577,12.5766423 5.02061181,12.9991892 L5.39606671,13.7889948 C4.63649106,13.9095245 3.90767001,14.1892956 3.25284497,14.6117089 C2.79656297,13.6957538 2.37156888,12.8373887 2.23077329,12.4726521 C1.99697367,11.8789457 2.0554567,11.20231 2.38721284,10.6626809 L5.30741763,6.54911006 C5.50824779,6.31887188 5.73202485,6.11200519 5.97489302,5.93207443 L6.05572011,5.90465063 L15.1761455,2.30390494 L20.7375712,5.53717163 C18.9489458,10.1004929 17.710466,13.0814606 17.05342,14.403288 Z" id="Shape" fill="#000000" fill-rule="nonzero"></path>
            </g>
        </g>
    </g>
</svg>