<?xml version="1.0" encoding="UTF-8"?>
<svg width="24px" height="24px" viewBox="0 0 24 24" version="1.1" xmlns="http://www.w3.org/2000/svg" xmlns:xlink="http://www.w3.org/1999/xlink">
    <title>2027AC47-1157-47F1-9CCC-FD2E33EE43DF</title>
    <defs>
        <filter id="filter-1">
            <feColorMatrix in="SourceGraphic" type="matrix" values="0 0 0 0 0.070588 0 0 0 0 0.376471 0 0 0 0 0.533333 0 0 0 1.000000 0"></feColorMatrix>
        </filter>
    </defs>
    <g id="Qalam-Mobile-App" stroke="none" stroke-width="1" fill="none" fill-rule="evenodd">
        <g id="noun_Next_3954095" transform="translate(-243.000000, -619.000000)" filter="url(#filter-1)">
            <g transform="translate(243.000000, 619.000000)">
                <path d="M24,2.57142857 L24,21.4285714 C24,22.8487322 22.8487322,24 21.4285714,24 L19.7142857,24 C18.2941249,24 17.1428571,22.8487322 17.1428571,21.4285714 L17.1428571,2.57142857 C17.1428571,1.15126779 18.2941249,0 19.7142857,0 L21.4285714,0 C22.1105567,0 22.7646096,0.27091759 23.246846,0.753153991 C23.7290824,1.23539039 24,1.88944331 24,2.57142857 Z M4.54285714,0.72 C3.75237817,-0.00755797143 2.60660578,-0.199148467 1.62243033,0.23166041 C0.638254873,0.662469287 0.00172603964,1.63423692 0,2.70857143 L0,21.2914286 C0.00172603964,22.3657631 0.638254873,23.3375307 1.62243033,23.7683396 C2.60660578,24.1991485 3.75237817,24.007558 4.54285714,23.28 L14.52,14.0657143 C15.0988722,13.5348433 15.4284357,12.7854406 15.4284357,12 C15.4284357,11.2145594 15.0988722,10.4651567 14.52,9.93428571 L4.54285714,0.72 Z" id="Shape" fill="#000000" fill-rule="nonzero"></path>
            </g>
        </g>
    </g>
</svg>