<?xml version="1.0" encoding="UTF-8"?>
<svg width="25px" height="24px" viewBox="0 0 25 24" version="1.1" xmlns="http://www.w3.org/2000/svg" xmlns:xlink="http://www.w3.org/1999/xlink">
    <title>B957D51F-6A11-4834-95B8-7C7733B5A049</title>
    <defs>
        <filter id="filter-1">
            <feColorMatrix in="SourceGraphic" type="matrix" values="0 0 0 0 0.070588 0 0 0 0 0.376471 0 0 0 0 0.533333 0 0 0 1.000000 0"></feColorMatrix>
        </filter>
    </defs>
    <g id="Qalam-Mobile-App" stroke="none" stroke-width="1" fill="none" fill-rule="evenodd">
        <g id="noun_Next_3954095-Copy" transform="translate(-108.000000, -619.000000)" filter="url(#filter-1)">
            <g transform="translate(120.500000, 631.000000) rotate(180.000000) translate(-120.500000, -631.000000) translate(108.000000, 619.000000)">
                <path d="M25,2.57142857 L25,21.4285714 C25,22.8487322 23.8007627,24 22.3214286,24 L20.5357143,24 C19.0563801,24 17.8571429,22.8487322 17.8571429,21.4285714 L17.8571429,2.57142857 C17.8571429,1.15126779 19.0563801,-2.84217094e-14 20.5357143,-2.84217094e-14 L22.3214286,-2.84217094e-14 C23.0318299,-2.84217094e-14 23.713135,0.27091759 24.2154646,0.753153991 C24.7177942,1.23539039 25,1.88944331 25,2.57142857 Z M4.73214286,0.72 C3.90872726,-0.00755797143 2.71521435,-0.199148467 1.69003159,0.23166041 C0.664848826,0.662469287 0.00179795796,1.63423692 0,2.70857143 L0,21.2914286 C0.00179795796,22.3657631 0.664848826,23.3375307 1.69003159,23.7683396 C2.71521435,24.1991485 3.90872726,24.007558 4.73214286,23.28 L15.125,14.0657143 C15.7279918,13.5348433 16.0712872,12.7854406 16.0712872,12 C16.0712872,11.2145594 15.7279918,10.4651567 15.125,9.93428571 L4.73214286,0.72 Z" id="Shape" fill="#000000" fill-rule="nonzero"></path>
            </g>
        </g>
    </g>
</svg>