<?xml version="1.0" encoding="UTF-8"?>
<svg width="23px" height="28px" viewBox="0 0 23 28" version="1.1" xmlns="http://www.w3.org/2000/svg" xmlns:xlink="http://www.w3.org/1999/xlink">
    <title>94999A17-F4CA-4BC6-AF85-F42311988B2D</title>
    <g id="icons" stroke="none" stroke-width="1" fill="none" fill-rule="evenodd">
        <g transform="translate(-102.000000, -426.000000)" fill="#959595" fill-rule="nonzero" id="noun_podcast_3190833">
            <g transform="translate(102.000000, 426.000000)">
                <path d="M15.3393441,22 C14.7228411,22.0076013 14.1887134,21.5790967 14.0696064,20.9812488 C13.9504994,20.383401 14.2803935,19.786772 14.8538364,19.5629318 C18.8221601,17.976481 21.0965724,13.8334893 20.278883,9.6808522 C19.4611936,5.52821506 15.7807093,2.53046673 11.5,2.53046673 C7.21929072,2.53046673 3.53880635,5.52821506 2.72111698,9.6808522 C1.90342761,13.8334893 4.17783988,17.976481 8.1461636,19.5629318 C8.75522923,19.8510521 9.03227916,20.5578104 8.77858638,21.1762512 C8.52489361,21.794692 7.82806114,22.1112607 7.18792462,21.8988836 C2.08579414,19.8591612 -0.838450212,14.5324576 0.212864691,9.19335275 C1.26417959,3.85424786 5.99623092,0 11.5,0 C17.0037691,0 21.7358204,3.85424786 22.7871353,9.19335275 C23.8384502,14.5324576 20.9142059,19.8591612 15.8120754,21.8988836 C15.662443,21.9619926 15.5019916,21.9962781 15.3393441,22 Z" id="Path"></path>
                <path d="M15.3999843,15.9994998 C14.8797474,16.013718 14.4009601,15.7237577 14.1830446,15.2625043 C13.9651291,14.8012508 14.050089,14.2576115 14.3989883,13.8807297 C15.8041535,12.3568109 15.720107,10.0205095 14.2088932,8.59651853 C12.6976794,7.17252755 10.3023206,7.17252755 8.79110677,8.59651853 C7.279893,10.0205095 7.1958465,12.3568109 8.60101168,13.8807297 C8.90986654,14.2206834 9.009427,14.6956223 8.86218959,15.1266415 C8.71495219,15.5576606 8.34328578,15.8792779 7.88719352,15.9703433 C7.43110126,16.0614088 6.9598744,15.9080872 6.65101954,15.5681335 C4.32396335,13.0240433 4.47431773,9.13962397 6.9914096,6.77412456 C9.50850148,4.40862515 13.4914985,4.40862515 16.0085904,6.77412456 C18.5256823,9.13962397 18.6760366,13.0240433 16.3489805,15.5681335 C16.1085728,15.8353678 15.7642816,15.9918655 15.3999843,15.9994998 Z" id="Path"></path>
                <path d="M12,28 C11.4477153,28 11,27.3894792 11,26.6363636 L11,14.3636364 C11,13.6105208 11.4477153,13 12,13 C12.5522847,13 13,13.6105208 13,14.3636364 L13,26.6363636 C13,27.3894792 12.5522847,28 12,28 Z" id="Path"></path>
                <circle id="Oval" cx="11.5" cy="11" r="1"></circle>
            </g>
        </g>
    </g>
</svg>